<svg width="4800" height="1350" viewBox="0 0 4800 1350" fill="none" xmlns="http://www.w3.org/2000/svg">
<rect width="4800" height="1350" fill="none"/>
<path fill-rule="evenodd" clip-rule="evenodd" d="M700.095 493.333C700.095 530.941 669.608 561.428 632 561.428C620.527 561.428 609.717 558.591 600.233 553.58C592.637 550.653 584.383 549.048 575.754 549.048C540.286 549.048 511.151 576.165 507.95 610.797L507.925 610.811C504.865 645.585 475.665 672.857 440.095 672.857C402.487 672.857 372 642.37 372 604.762C372 567.154 402.487 536.667 440.095 536.667C451.938 536.667 463.075 539.69 472.775 545.007C479.845 547.841 486.546 549.048 495.278 549.048C530.743 549.048 560.7 521.771 563.905 487.143L564.156 487.446C567.141 452.594 596.376 425.238 632 425.238C669.608 425.238 700.095 455.725 700.095 493.333Z" fill="url(#paint0_linear_4_143)"/>
<path fill-rule="evenodd" clip-rule="evenodd" d="M892 840C892 877.608 861.513 908.095 823.905 908.095C812.432 908.095 801.622 905.258 792.138 900.247C784.541 897.319 776.287 895.715 767.658 895.715C732.19 895.715 703.055 922.831 699.855 957.464L699.83 957.478C696.769 992.252 667.569 1019.52 632 1019.52C594.392 1019.52 563.905 989.037 563.905 951.429C563.905 913.821 594.392 883.334 632 883.334C643.842 883.334 654.979 886.357 664.68 891.674C671.75 894.508 678.451 895.715 687.182 895.715C722.647 895.715 752.605 868.438 755.81 833.81L756.06 834.113C759.045 799.261 788.28 771.905 823.905 771.905C861.513 771.905 892 802.392 892 840Z" fill="url(#paint1_linear_4_143)"/>
<circle cx="632" cy="716.19" r="68.0952" fill="url(#paint2_linear_4_143)"/>
<path fill-rule="evenodd" clip-rule="evenodd" d="M632 784.286C669.608 784.286 700.095 753.798 700.095 716.19C700.095 678.582 669.608 648.095 632 648.095C596.375 648.095 567.14 675.451 564.156 710.302L563.905 710C560.7 744.628 530.743 771.905 495.278 771.905C486.546 771.905 479.845 770.698 472.775 767.864C463.075 762.547 451.938 759.524 440.095 759.524C402.487 759.524 372 790.011 372 827.619C372 865.227 402.487 895.714 440.095 895.714C475.665 895.714 504.865 868.442 507.925 833.668L507.95 833.655C511.151 799.022 540.286 771.905 575.754 771.905C584.382 771.905 592.636 773.51 600.232 776.437C609.716 781.448 620.527 784.286 632 784.286Z" fill="url(#paint3_linear_4_143)"/>
<path fill-rule="evenodd" clip-rule="evenodd" d="M823.19 435C850.805 435 873.19 412.614 873.19 385C873.19 357.386 850.805 335 823.19 335C795.576 335 773.19 357.386 773.19 385C773.19 412.614 795.576 435 823.19 435ZM1017 783.571C1044.61 783.571 1067 761.186 1067 733.572C1067 705.957 1044.61 683.572 1017 683.572C989.386 683.572 967 705.957 967 733.572C967 761.186 989.386 783.571 1017 783.571ZM1085.1 498.333C1085.1 535.941 1054.61 566.428 1017 566.428C979.392 566.428 948.905 535.941 948.905 498.333C948.905 460.725 979.392 430.238 1017 430.238C1054.61 430.238 1085.1 460.725 1085.1 498.333ZM824.5 712.381C881.109 712.381 927 666.49 927 609.881C927 553.272 881.109 507.381 824.5 507.381C767.891 507.381 722 553.272 722 609.881C722 666.49 767.891 712.381 824.5 712.381Z" fill="url(#paint4_linear_4_143)"/>
<path d="M1477 491C1420 491 1376.5 509.5 1346.5 547.5C1320 580.5 1307 624 1307 677C1307 731 1319.5 774 1345 806C1374 843 1418.5 862 1478 862C1516.5 862 1549.5 851 1577 829C1606.5 805.5 1625 773 1633 731H1576C1569 758 1557 778.5 1540 792C1524 804 1503 810.5 1477.5 810.5C1438.5 810.5 1409.5 798 1391 774C1374 751.5 1365.5 719 1365.5 677C1365.5 636 1374 604 1391.5 581C1410.5 555 1438.5 542.5 1476 542.5C1501 542.5 1521.5 547.5 1537.5 558.5C1554 569.5 1565 586.5 1571 610H1628C1622.5 574 1607 545 1581 524C1554 502 1519 491 1477 491ZM1800.71 589.5C1767.71 589.5 1741.71 595 1722.71 607C1700.21 620 1686.21 641 1680.71 669.5L1737.21 674C1740.21 660.5 1747.71 650.5 1758.71 644C1768.21 638 1780.71 635.5 1796.71 635.5C1833.71 635.5 1852.21 652 1852.21 686V696L1795.71 697.5C1757.71 698.5 1728.21 706.5 1707.21 721.5C1684.21 737 1673.21 759.5 1673.21 788.5C1673.21 810 1681.21 827.5 1697.21 841.5C1712.71 855 1733.71 862 1760.71 862C1783.21 862 1802.71 858 1819.21 850.5C1833.71 843.5 1846.21 834 1856.21 821V855H1909.21V690C1909.21 658.5 1901.21 634.5 1885.21 618C1867.21 599 1838.71 589.5 1800.71 589.5ZM1852.21 737V750C1852.21 770 1844.21 786.5 1829.21 799.5C1814.21 812 1795.71 818.5 1773.71 818.5C1761.21 818.5 1751.21 815 1743.21 809C1735.21 803 1731.71 795.5 1731.71 786.5C1731.71 755.5 1754.21 739.5 1799.71 738.5L1852.21 737ZM2091.34 589.5C2075.34 589.5 2061.84 594 2050.34 603.5C2040.84 610.5 2032.84 620.5 2025.84 633.5V596.5H1969.34V855H2025.84V718C2025.84 696 2032.34 678.5 2046.34 665C2058.34 653 2071.84 647.5 2086.84 647.5C2098.84 647.5 2110.84 649 2123.84 653V596C2114.84 591.5 2103.84 589.5 2091.34 589.5ZM2156.36 491V855H2209.36V827.5C2227.36 850.5 2253.36 862 2287.36 862C2325.36 862 2355.36 848.5 2377.36 821.5C2397.36 796.5 2407.36 764 2407.36 724.5C2407.36 686.5 2397.36 655 2377.86 630C2356.36 603 2327.36 589.5 2290.36 589.5C2260.36 589.5 2234.36 603.5 2213.36 632V491H2156.36ZM2276.86 635.5C2302.36 635.5 2321.36 644 2333.36 661C2343.36 675.5 2348.86 696.5 2348.86 724.5C2348.86 752.5 2343.86 774 2334.36 789C2322.36 807 2303.86 816 2278.86 816C2256.36 816 2239.36 807 2227.36 789.5C2216.36 773.5 2211.36 752.5 2211.36 727.5V723.5C2211.36 696 2217.86 674 2231.36 658C2243.36 643 2258.36 635.5 2276.86 635.5ZM2577.14 589.5C2537.64 589.5 2506.14 602 2482.64 628C2458.64 653.5 2447.14 686 2447.14 726C2447.14 765.5 2458.64 798 2482.14 823C2506.14 849 2537.64 862 2577.14 862C2616.14 862 2648.14 849 2672.14 823C2695.14 798 2707.14 765.5 2707.14 726C2707.14 686 2695.14 653.5 2671.64 628C2647.64 602 2616.14 589.5 2577.14 589.5ZM2577.14 636C2600.64 636 2619.14 645 2632.14 664C2643.14 680 2649.14 701 2649.14 726C2649.14 750.5 2643.14 771 2632.14 787.5C2619.14 806 2600.64 815.5 2577.14 815.5C2553.14 815.5 2535.14 806 2522.14 787.5C2511.14 771.5 2505.64 751 2505.64 726C2505.64 701 2511.14 680 2522.14 664C2535.14 645 2553.14 636 2577.14 636ZM2890.44 589.5C2874.94 589.5 2860.94 592.5 2847.94 599C2835.44 605 2823.94 614.5 2813.94 626.5V596.5H2756.94V855H2813.94V699.5C2815.94 679 2822.94 663 2834.94 652C2845.44 642 2857.94 637 2871.94 637C2910.94 637 2930.44 658 2930.44 700.5V855H2987.44V695.5C2987.44 624.5 2954.94 589.5 2890.44 589.5Z" fill="black"/>
<path d="M3205.97 491C3153.47 491 3111.97 509.5 3081.47 547C3052.47 581.5 3038.47 625 3038.47 678C3038.47 731 3052.97 774.5 3081.97 808C3112.97 844 3156.97 862 3213.47 862C3242.97 862 3270.47 858 3296.47 850C3320.97 842 3341.97 831.5 3358.97 817.5V671.5H3206.47V707H3318.47V798C3305.97 806 3290.97 813 3273.47 818C3255.47 823 3236.97 826 3217.47 826C3170.97 826 3135.97 812 3112.47 784.5C3090.47 758.5 3079.47 723 3079.47 678C3079.47 632 3090.47 595.5 3113.47 568.5C3136.47 541 3166.97 527.5 3205.97 527.5C3237.47 527.5 3262.97 535 3282.47 550.5C3300.97 565 3312.97 585.5 3318.47 612.5H3359.47C3352.97 573.5 3337.47 544 3312.47 523.5C3285.97 501.5 3250.47 491 3205.97 491ZM3535.99 589.5C3517.99 589.5 3502.49 595 3488.99 606C3477.99 614.5 3468.99 626.5 3461.99 641.5V596.5H3422.49V855H3461.99V718C3461.99 694 3468.49 673.5 3482.49 656.5C3495.99 638.5 3512.99 630 3532.99 630C3545.49 630 3558.49 631.5 3571.49 635.5V595.5C3561.99 591.5 3549.99 589.5 3535.99 589.5ZM3717.61 589.5C3686.61 589.5 3662.11 595.5 3643.11 607.5C3622.11 620.5 3608.61 641 3603.11 668L3642.61 671C3646.61 654.5 3655.11 642 3668.61 634C3680.61 626 3696.11 622.5 3715.11 622.5C3760.11 622.5 3782.61 644 3782.61 687.5V701L3720.61 702C3681.61 702.5 3651.61 710 3630.61 724C3606.61 739 3595.11 761 3595.11 790.5C3595.11 811.5 3603.11 829 3619.11 842.5C3634.61 855.5 3655.11 862 3681.11 862C3705.11 862 3726.61 856.5 3745.61 846C3761.61 837 3775.11 825.5 3785.11 811.5V855H3822.61V689C3822.61 659 3814.61 635.5 3799.61 618.5C3781.61 599 3754.61 589.5 3717.61 589.5ZM3782.61 731V753C3782.61 773 3773.11 791 3754.61 806.5C3735.61 822.5 3714.11 830.5 3689.61 830.5C3673.61 830.5 3660.61 826.5 3650.61 819C3640.61 811 3636.11 801.5 3636.11 789.5C3636.11 752 3665.11 733 3723.11 732L3782.61 731ZM4007.91 589.5C3968.91 589.5 3940.41 606 3921.91 639V596.5H3884.41V954H3924.41V808C3944.41 844 3972.91 862 4009.91 862C4046.91 862 4075.41 848 4096.41 821C4115.41 796 4125.41 764.5 4125.41 726.5C4125.41 687.5 4115.41 656 4095.91 631C4074.41 603 4044.91 589.5 4007.91 589.5ZM4002.91 622.5C4030.41 622.5 4051.41 632.5 4065.91 653.5C4077.91 671.5 4084.41 696 4084.41 726.5C4084.41 757.5 4077.91 782 4064.91 800C4050.41 819 4029.41 829 4001.41 829C3977.41 829 3958.91 819.5 3944.91 801.5C3929.91 783 3922.91 759 3922.91 729V724C3922.91 695 3929.41 671 3942.41 653C3956.41 632.5 3976.91 622.5 4002.91 622.5ZM4177.38 491V855H4217.38V707.5C4217.38 683.5 4223.88 663 4237.38 647C4250.38 631 4266.88 623 4286.88 623C4308.38 623 4324.88 629.5 4336.88 642.5C4347.88 655.5 4353.88 674 4353.88 698V855H4393.88V692C4393.88 659 4385.88 633.5 4369.88 616C4353.88 598 4330.38 589.5 4300.38 589.5C4282.88 589.5 4267.38 593.5 4253.38 601.5C4238.38 610 4226.38 622.5 4217.38 639V491H4177.38Z" fill="#46A7F8"/>
<defs>
<linearGradient id="paint0_linear_4_143" x1="309.5" y1="697.5" x2="729.5" y2="425" gradientUnits="userSpaceOnUse">
<stop stop-color="#51CCE7"/>
<stop offset="1" stop-color="#4382E1"/>
</linearGradient>
<linearGradient id="paint1_linear_4_143" x1="501.405" y1="1044.17" x2="921.405" y2="771.667" gradientUnits="userSpaceOnUse">
<stop stop-color="#51CCE7"/>
<stop offset="1" stop-color="#4382E1"/>
</linearGradient>
<linearGradient id="paint2_linear_4_143" x1="632" y1="648.095" x2="632" y2="784.286" gradientUnits="userSpaceOnUse">
<stop stop-color="#51CCE7"/>
<stop offset="1" stop-color="#4382E1"/>
</linearGradient>
<linearGradient id="paint3_linear_4_143" x1="309.5" y1="920.357" x2="729.5" y2="647.858" gradientUnits="userSpaceOnUse">
<stop stop-color="#51CCE7"/>
<stop offset="1" stop-color="#4382E1"/>
</linearGradient>
<linearGradient id="paint4_linear_4_143" x1="1087" y1="302.5" x2="824.5" y2="712.381" gradientUnits="userSpaceOnUse">
<stop stop-color="#5F9CF8"/>
<stop offset="1" stop-color="#7767DE"/>
</linearGradient>
</defs>
</svg>
